<svg xmlns="http://www.w3.org/2000/svg" width="50" height="59" viewBox="0 0 50 59">
  <metadata><?xpacket begin="﻿" id="W5M0MpCehiHzreSzNTczkc9d"?>
<x:xmpmeta xmlns:x="adobe:ns:meta/" x:xmptk="Adobe XMP Core 5.6-c140 79.160451, 2017/05/06-01:08:21        ">
   <rdf:RDF xmlns:rdf="http://www.w3.org/1999/02/22-rdf-syntax-ns#">
      <rdf:Description rdf:about=""/>
   </rdf:RDF>
</x:xmpmeta>
                                                                                                    
                                                                                                    
                                                                                                    
                                                                                                    
                                                                                                    
                                                                                                    
                                                                                                    
                                                                                                    
                                                                                                    
                                                                                                    
                                                                                                    
                                                                                                    
                                                                                                    
                                                                                                    
                                                                                                    
                                                                                                    
                                                                                                    
                                                                                                    
                                                                                                    
                                                                                                    
                           
<?xpacket end="w"?></metadata>
<defs>
    <style>
      .cls-1 {
        fill: #001b5e;
        fill-rule: evenodd;
      }
    </style>
  </defs>
  <path id="Icon" class="cls-1" d="M402.5,4749.74h0.551a12.011,12.011,0,0,0,23.9,0h0.549a2.46,2.46,0,1,0,0-4.92h-1.182a12.024,12.024,0,0,0-8.319-7.5v-0.37a3,3,0,0,0-6,0v0.37a12.024,12.024,0,0,0-8.32,7.5H402.5A2.46,2.46,0,1,0,402.5,4749.74Zm12.5,8.85a9.958,9.958,0,0,1-9.952-8.85h19.9A9.957,9.957,0,0,1,415,4758.59Zm-1-21.64a1,1,0,0,1,1.712-.68,0.92,0.92,0,0,1,.288.68v4.92h-2v-4.92Zm-2,2.42v3.48a0.99,0.99,0,0,0,1,.98h4a0.991,0.991,0,0,0,1-.98v-3.48a10.039,10.039,0,0,1,6.172,5.45H405.832A10.033,10.033,0,0,1,412,4739.37Zm-9.5,7.42h25a0.49,0.49,0,1,1,0,.98h-25A0.49,0.49,0,1,1,402.5,4746.79Zm30.172,21.94c-0.329-.32-0.658-0.63-1-0.92a25.294,25.294,0,0,0-33.339,0A24.407,24.407,0,0,0,390,4786.12v5.9a0.993,0.993,0,0,0,1,.99h48.008a0.993,0.993,0,0,0,1-.99v-5.9A24.249,24.249,0,0,0,432.674,4768.73Zm-2.667,7.56h-4v-10.03a23.537,23.537,0,0,1,4,2.72v7.31Zm-21.557-11.84a23.242,23.242,0,0,1,13.12,0,21.642,21.642,0,0,1,2.465.88,1,1,0,0,0-.03.14v10.82H406v-10.82a0.765,0.765,0,0,0-.03-0.14A21.829,21.829,0,0,1,408.45,4764.45ZM400,4776.29v-7.31a23.617,23.617,0,0,1,4-2.72v10.03h-4Zm-8,9.83a22.4,22.4,0,0,1,6-15.22v20.14h-6v-4.92Zm8,4.92v-12.79h30.006v12.79H400Zm38.007,0h-6v-20.15a22.266,22.266,0,0,1,6,15.23v4.92Z" transform="translate(-390 -4734)"/>
</svg>
