<svg xmlns="http://www.w3.org/2000/svg" width="55" height="55" viewBox="0 0 55 55">
  <metadata><?xpacket begin="﻿" id="W5M0MpCehiHzreSzNTczkc9d"?>
<x:xmpmeta xmlns:x="adobe:ns:meta/" x:xmptk="Adobe XMP Core 5.6-c140 79.160451, 2017/05/06-01:08:21        ">
   <rdf:RDF xmlns:rdf="http://www.w3.org/1999/02/22-rdf-syntax-ns#">
      <rdf:Description rdf:about=""/>
   </rdf:RDF>
</x:xmpmeta>
                                                                                                    
                                                                                                    
                                                                                                    
                                                                                                    
                                                                                                    
                                                                                                    
                                                                                                    
                                                                                                    
                                                                                                    
                                                                                                    
                                                                                                    
                                                                                                    
                                                                                                    
                                                                                                    
                                                                                                    
                                                                                                    
                                                                                                    
                                                                                                    
                                                                                                    
                                                                                                    
                           
<?xpacket end="w"?></metadata>
<defs>
    <style>
      .cls-1 {
        fill: #001b5e;
        fill-rule: evenodd;
      }
    </style>
  </defs>
  <path id="Icon" class="cls-1" d="M1017.83,4766.5a0.918,0.918,0,0,0,.92-0.92v-12.83h7.33a0.918,0.918,0,0,0,.92-0.92v-3.66a0.3,0.3,0,0,0-.02-0.1,1.18,1.18,0,0,0-.04-0.2c-0.02-.05-0.04-0.09-0.06-0.13a0.828,0.828,0,0,0-.37-0.37,0.351,0.351,0,0,0-.14-0.06c-0.03-.01-0.05-0.03-0.08-0.04l-34.831-8.25a1.464,1.464,0,0,0-.209-0.02h-3.667a0.857,0.857,0,0,0-.316.06l-0.071.03c-0.024.01-.043,0.02-0.063,0.03l-14.666,8.25a0.717,0.717,0,0,0-.127.1c-0.03.02-.059,0.05-0.086,0.07a0.927,0.927,0,0,0-.183.27v0.01a0.936,0.936,0,0,0-.065.32c0,0.01-.006.02-0.006,0.03v3.66a0.917,0.917,0,0,0,.917.92H985.75v17.04l-3.4,3.4a0.9,0.9,0,0,0-.269.64v14.67H980.25v5.5h18.333v-5.5H996.75v-14.67a0.9,0.9,0,0,0-.269-0.64l-3.4-3.4v-17.04h18.337v12.83a0.915,0.915,0,0,0,.91.92h1.84v2.75a0.915,0.915,0,0,0,.91.92,1.83,1.83,0,1,1-1.83,1.83v-0.92h-1.83V4772a3.639,3.639,0,0,0,1.91,3.2l-6.88,6.88h-2.37a0.915,0.915,0,0,0-.91.92v8.25a0.915,0.915,0,0,0,.91.92h22a0.918,0.918,0,0,0,.92-0.92V4783a0.918,0.918,0,0,0-.92-0.92h-2.37l-6.88-6.88a3.652,3.652,0,0,0-.83-6.75v-1.95h1.83Zm0.92-17.42h6.42v1.84h-6.42v-1.84Zm6.42,34.84v6.41H1005v-6.41h20.17Zm-4.05-1.84h-12.07l6.03-6.03Zm-4.2-21.08h-3.67v-8.25h3.67V4761Zm0-10.08h-3.67v-1.84h3.67v1.84Zm-28.42-10.09h1.833v6.42H988.5v-6.42Zm-0.917,8.25h3.667v1.46l-0.379.38h-3.288v-1.84Zm3.667,4.05v6.57l-3.287-3.28Zm-3.667-.38h1.454l-1.454,1.45v-1.45Zm0,5.88,3.288,3.29-3.288,3.28v-6.57Zm3.667,5.5v6.57l-3.287-3.28Zm-3.667,6.04v-0.54l3.288,3.29-3.288,3.28v-6.03Zm3.667,4.96v6.57l-3.287-3.28Zm-3.667,5.5,3.288,3.29-3.288,3.28v-6.57Zm3.667,5.5v2.37h-2.37Zm-4.583-44.65v5.77H976.416Zm-12.834,9.44v-1.84H985.75v1.84H973.833Zm10.084,23.29,1.833-1.83v16.12h-1.833v-14.29Zm12.833,16.12v1.84H982.083v-1.84H996.75Zm-1.833-16.12v14.29h-1.834v-16.12Zm16.5-23.29H993.083v-1.84h18.337v1.84Zm-19.253-3.67v-6.17l26.073,6.17H992.167Zm21.083,17.42v-1.84h3.67v1.84h-3.67Z" transform="translate(-972 -4739)"/>
</svg>
