<svg xmlns="http://www.w3.org/2000/svg" width="58" height="58" viewBox="0 0 58 58">
  <metadata><?xpacket begin="﻿" id="W5M0MpCehiHzreSzNTczkc9d"?>
<x:xmpmeta xmlns:x="adobe:ns:meta/" x:xmptk="Adobe XMP Core 5.6-c140 79.160451, 2017/05/06-01:08:21        ">
   <rdf:RDF xmlns:rdf="http://www.w3.org/1999/02/22-rdf-syntax-ns#">
      <rdf:Description rdf:about=""/>
   </rdf:RDF>
</x:xmpmeta>
                                                                                                    
                                                                                                    
                                                                                                    
                                                                                                    
                                                                                                    
                                                                                                    
                                                                                                    
                                                                                                    
                                                                                                    
                                                                                                    
                                                                                                    
                                                                                                    
                                                                                                    
                                                                                                    
                                                                                                    
                                                                                                    
                                                                                                    
                                                                                                    
                                                                                                    
                                                                                                    
                           
<?xpacket end="w"?></metadata>
<defs>
    <style>
      .cls-1 {
        fill: #001b5e;
        fill-rule: evenodd;
      }
    </style>
  </defs>
  <path id="icon" class="cls-1" d="M1324.04,4784.33h-21.27v-4.93a22.236,22.236,0,1,0-13.54,0v4.93h-21.27a0.969,0.969,0,0,0-.96.97v7.73a0.96,0.96,0,0,0,.96.96h56.08a0.96,0.96,0,0,0,.96-0.96v-7.73A0.969,0.969,0,0,0,1324.04,4784.33Zm-48.34-26.08a20.309,20.309,0,1,1,14.77,19.52A20.289,20.289,0,0,1,1275.7,4758.25Zm15.47,21.69a0.664,0.664,0,0,1,.15.03c0.14,0.03.27,0.05,0.39,0.07,0.33,0.07.65,0.13,0.99,0.18,0.17,0.02.34,0.04,0.5,0.07,0.31,0.04.6,0.06,0.9,0.1,0.18,0.01.36,0.03,0.53,0.04,0.37,0.02.74,0.03,1.12,0.04,0.09,0,.17.01,0.25,0.01s0.17-.01.25-0.01c0.37,0,.75-0.02,1.11-0.04,0.18-.01.36-0.03,0.54-0.04,0.3-.03.59-0.06,0.9-0.1,0.17-.03.34-0.04,0.5-0.07q0.5-.075.99-0.18c0.13-.02.26-0.04,0.39-0.07,0.04-.01.1-0.02,0.15-0.03v4.39h-9.66v-4.39Zm31.89,12.12h-54.12v-5.8h54.13v5.8h-0.01Zm-29-30.47a3.861,3.861,0,0,0,5.28-1.42c0.83-1.43,2.97-10.03,3.4-11.74a0.974,0.974,0,0,0-.72-1.17,0.945,0.945,0,0,0-.89.24c-1.28,1.22-7.66,7.38-8.48,8.81A3.878,3.878,0,0,0,1294.06,4761.59Zm0.26-4.32a71.79,71.79,0,0,1,5.7-6,68.617,68.617,0,0,1-2.34,7.93,1.947,1.947,0,0,1-2.64.73,1.927,1.927,0,0,1-.73-2.64C1294.32,4757.29,1294.32,4757.28,1294.32,4757.27Zm1.68-14.49a0.962,0.962,0,0,0,.96-0.97v-1.93a0.96,0.96,0,1,0-1.92,0v1.93A0.962,0.962,0,0,0,1296,4742.78Zm-8.35-.92a0.966,0.966,0,0,0-1.67.97l0.96,1.67a0.969,0.969,0,0,0,1.69-.95l-0.01-.01Zm-5.4,7.33-1.67-.96a0.973,0.973,0,0,0-1.32.36,0.963,0.963,0,0,0,.35,1.31l1.68,0.97a0.968,0.968,0,0,0,.98-1.67A0.031,0.031,0,0,0,1282.25,4749.19Zm-1.72,9.06a0.962,0.962,0,0,0-.96-0.97h-1.94a0.965,0.965,0,0,0,0,1.93h1.94A0.96,0.96,0,0,0,1280.53,4758.25Zm0.76,7.37-1.68.96a0.963,0.963,0,1,0,.96,1.67h0.01l1.67-.96a0.961,0.961,0,1,0-.95-1.67h-0.01Zm6.98,6.01a0.975,0.975,0,0,0-1.33.35l-0.96,1.67a0.971,0.971,0,1,0,1.67.99v-0.01l0.97-1.68A0.966,0.966,0,0,0,1288.27,4771.63Zm7.73,2.07a0.969,0.969,0,0,0-.96.97v1.93a0.96,0.96,0,1,0,1.92,0v-1.93A0.969,0.969,0,0,0,1296,4773.7Zm8.35,0.93a0.966,0.966,0,0,0,1.67-.97l-0.96-1.67a0.958,0.958,0,0,0-1.32-.36,0.946,0.946,0,0,0-.36,1.31l0.01,0.01Zm5.4-7.34,1.67,0.96a0.964,0.964,0,0,0,1.32-.36,0.951,0.951,0,0,0-.35-1.3l-1.68-.97a0.964,0.964,0,1,0-.98,1.66A0.031,0.031,0,0,0,1309.75,4767.29Zm1.71-9.04a0.969,0.969,0,0,0,.97.96h1.94a0.965,0.965,0,0,0,0-1.93h-1.94A0.965,0.965,0,0,0,1311.46,4758.25Zm-1.23-7.25a0.888,0.888,0,0,0,.48-0.13l1.68-.97a0.966,0.966,0,0,0-.97-1.67l-1.67.96A0.971,0.971,0,0,0,1310.23,4751Zm-6.5-6.15a0.975,0.975,0,0,0,1.33-.35l0.96-1.67a0.966,0.966,0,0,0-1.67-.97l-0.97,1.67A0.963,0.963,0,0,0,1303.73,4744.85Zm-8.21,14.23a0.966,0.966,0,0,0,1.32-.35l0.48-.84a0.964,0.964,0,1,0-1.66-.98l-0.01.01-0.48.83A0.966,0.966,0,0,0,1295.52,4759.08Z" transform="translate(-1267 -4736)"/>
</svg>
