<svg xmlns="http://www.w3.org/2000/svg" width="55" height="55" viewBox="0 0 55 55">
  <metadata><?xpacket begin="﻿" id="W5M0MpCehiHzreSzNTczkc9d"?>
<x:xmpmeta xmlns:x="adobe:ns:meta/" x:xmptk="Adobe XMP Core 5.6-c140 79.160451, 2017/05/06-01:08:21        ">
   <rdf:RDF xmlns:rdf="http://www.w3.org/1999/02/22-rdf-syntax-ns#">
      <rdf:Description rdf:about=""/>
   </rdf:RDF>
</x:xmpmeta>
                                                                                                    
                                                                                                    
                                                                                                    
                                                                                                    
                                                                                                    
                                                                                                    
                                                                                                    
                                                                                                    
                                                                                                    
                                                                                                    
                                                                                                    
                                                                                                    
                                                                                                    
                                                                                                    
                                                                                                    
                                                                                                    
                                                                                                    
                                                                                                    
                                                                                                    
                                                                                                    
                           
<?xpacket end="w"?></metadata>
<defs>
    <style>
      .cls-1 {
        fill: #001b5e;
        fill-rule: evenodd;
      }
    </style>
  </defs>
  <path id="icon" class="cls-1" d="M736.083,4786.67h-2.75v-28.42a0.908,0.908,0,0,0-.765-0.9l-21.235-3.54v-13.89a0.917,0.917,0,0,0-.917-0.92H686.583a0.918,0.918,0,0,0-.917.92v46.75h-2.749a0.915,0.915,0,0,0-.917.91v5.5a0.917,0.917,0,0,0,.917.92h53.167a0.917,0.917,0,0,0,.916-0.92v-5.5A0.915,0.915,0,0,0,736.083,4786.67Zm-4.583-27.64v27.64H711.333v-31Zm-44-18.2h22v45.84h-22v-45.84Zm47.667,51.34H683.833v-3.67h51.334v3.67Zm-38.5-47.67h-5.5a0.917,0.917,0,0,0-.916.92v5.5a0.915,0.915,0,0,0,.916.91h5.5a0.915,0.915,0,0,0,.916-0.91v-5.5A0.917,0.917,0,0,0,696.667,4744.5Zm-0.917,5.5h-3.667v-3.67h3.667V4750Zm10.083-5.5h-5.5a0.918,0.918,0,0,0-.918.92v5.5a0.916,0.916,0,0,0,.918.91h5.5a0.915,0.915,0,0,0,.917-0.91v-5.5A0.918,0.918,0,0,0,705.833,4744.5Zm-0.917,5.5H701.25v-3.67h3.666V4750Zm-8.249,3.67h-5.5a0.915,0.915,0,0,0-.916.91v5.5a0.917,0.917,0,0,0,.916.92h5.5a0.917,0.917,0,0,0,.916-0.92v-5.5A0.915,0.915,0,0,0,696.667,4753.67Zm-0.917,5.5h-3.667v-3.67h3.667v3.67Zm10.083-5.5h-5.5a0.916,0.916,0,0,0-.918.91v5.5a0.918,0.918,0,0,0,.918.92h5.5a0.918,0.918,0,0,0,.917-0.92v-5.5A0.915,0.915,0,0,0,705.833,4753.67Zm-0.917,5.5H701.25v-3.67h3.666v3.67Zm-8.249,3.66h-5.5a0.917,0.917,0,0,0-.916.92v5.5a0.917,0.917,0,0,0,.916.92h5.5a0.917,0.917,0,0,0,.916-0.92v-5.5A0.917,0.917,0,0,0,696.667,4762.83Zm-0.917,5.5h-3.667v-3.66h3.667v3.66Zm10.083-5.5h-5.5a0.918,0.918,0,0,0-.918.92v5.5a0.918,0.918,0,0,0,.918.92h5.5a0.918,0.918,0,0,0,.917-0.92v-5.5A0.918,0.918,0,0,0,705.833,4762.83Zm-0.917,5.5H701.25v-3.66h3.666v3.66Zm-8.249,3.67h-5.5a0.917,0.917,0,0,0-.916.92v5.5a0.915,0.915,0,0,0,.916.91h5.5a0.915,0.915,0,0,0,.916-0.91v-5.5A0.917,0.917,0,0,0,696.667,4772Zm-0.917,5.5h-3.667v-3.67h3.667v3.67Zm10.083-5.5h-5.5a0.918,0.918,0,0,0-.918.92v5.5a0.916,0.916,0,0,0,.918.91h5.5a0.915,0.915,0,0,0,.917-0.91v-5.5A0.918,0.918,0,0,0,705.833,4772Zm-0.917,5.5H701.25v-3.67h3.666v3.67Zm9.168-7.33h5.5a0.918,0.918,0,0,0,.917-0.92v-5.5a0.918,0.918,0,0,0-.917-0.92h-5.5a0.917,0.917,0,0,0-.917.92v5.5A0.917,0.917,0,0,0,714.084,4770.17Zm0.916-5.5h3.666v3.66H715v-3.66Zm8.25,5.5h5.5a0.918,0.918,0,0,0,.917-0.92v-5.5a0.918,0.918,0,0,0-.917-0.92h-5.5a0.918,0.918,0,0,0-.917.92v5.5A0.918,0.918,0,0,0,723.25,4770.17Zm0.916-5.5h3.667v3.66h-3.667v-3.66Zm-10.082,14.66h5.5a0.915,0.915,0,0,0,.917-0.91v-5.5a0.918,0.918,0,0,0-.917-0.92h-5.5a0.917,0.917,0,0,0-.917.92v5.5A0.915,0.915,0,0,0,714.084,4779.33Zm0.916-5.5h3.666v3.67H715v-3.67Zm8.25,5.5h5.5a0.915,0.915,0,0,0,.917-0.91v-5.5a0.918,0.918,0,0,0-.917-0.92h-5.5a0.918,0.918,0,0,0-.917.92v5.5A0.915,0.915,0,0,0,723.25,4779.33Zm0.916-5.5h3.667v3.67h-3.667v-3.67Z" transform="translate(-682 -4739)"/>
</svg>
